<svg width="375" height="1573" fill="none" xmlns="http://www.w3.org/2000/svg"><g opacity=".07" stroke="#000"><path d="M1705.42 2583.94c-215.93 359.79-682.11 562.78-1135.801 637.5-450.139 68.55-891.355 14.99-1350.536-163.9-462.733-172.73-948.293-469.49-1016.753-841.57-68.47-372.08 283.72-825.64 585.42-1234.436 305.27-414.957 566.218-781.6 981.823-1017.897C191.336-269.104 767.755-371.499 1142.46-138.739c373.41 227.902 543.8 786.102 645.5 1321.059 101.69 534.96 134.7 1046.69-82.54 1401.62Z"/><path d="M1621.31 2543.6c-205.14 341.8-648 534.65-1079.01 605.63-427.632 65.13-846.787 14.24-1283.008-155.7-439.602-164.1-900.882-446.02-965.922-799.5-65.04-353.47 269.54-784.35 556.16-1172.71 290.001-394.21 537.902-742.521 932.727-967.003C182.932-166.787 730.53-264.062 1086.5-42.94c354.74 216.507 516.61 746.797 613.22 1255.01 96.61 508.21 127.97 994.35-78.41 1331.53Z"/><path d="M1448.24 2444.83c-183.54 305.82-579.787 478.37-965.427 541.88-382.618 58.27-757.652 12.74-1147.955-139.32-393.328-146.82-806.048-399.06-864.248-715.33-58.19-316.27 241.17-701.79 497.62-1049.27 259.474-352.716 481.28-664.362 834.544-865.215C161.273 19.745 651.229-67.29 969.73 130.556c317.39 193.717 462.23 668.186 548.67 1122.904 86.44 454.72 114.49 889.68-70.16 1191.37Z"/><path d="M1275.17 2346.06c-161.95 269.84-511.578 422.09-851.849 478.12-337.604 51.42-668.516 11.25-1012.901-122.92-347.052-129.55-711.22-352.12-762.57-631.18-51.35-279.06 212.79-619.22 439.073-925.82 228.949-311.222 424.66-586.204 736.364-763.426 316.322-174.556 748.637-251.352 1029.667-76.783C1133.01 474.978 1260.8 893.628 1337.07 1294.85c76.28 401.22 101.03 785.01-61.9 1051.21Z"/><path d="M1102.1 2247.29c-140.353 233.86-443.365 365.81-738.267 414.37-292.59 44.56-579.38 9.75-877.848-106.53-300.778-112.28-616.395-305.17-660.895-547.02-44.5-241.85 184.421-536.67 380.532-802.39 198.422-269.717 368.039-508.035 638.182-661.628C117.95 392.81 492.622 326.253 736.182 477.547c242.714 148.137 353.468 510.966 419.568 858.693 66.11 347.72 87.56 680.34-53.65 911.05Z"/><path d="M929.037 2148.52c-118.764 197.88-375.159 309.53-624.691 350.62-247.576 37.71-490.245 8.25-742.794-90.14-254.505-95.01-521.562-258.22-559.217-462.87-37.655-204.64 156.046-454.1 321.986-678.94 167.896-228.22 311.417-429.877 540-559.84 231.97-128.008 549-184.325 755.089-56.307C824.783 776.389 918.499 1083.4 974.432 1377.63c55.938 294.23 74.088 575.67-45.395 770.89Z"/><path d="M755.97 2049.74c-97.171 161.91-306.949 253.26-511.111 286.88-202.563 30.85-401.11 6.75-607.741-73.76-208.231-77.72-426.732-211.27-457.541-378.7-30.809-167.44 127.674-371.54 263.443-555.5 137.369-186.73 254.796-351.718 441.818-458.052C74.632 765.875 334.02 719.797 502.639 824.539c168.032 102.556 244.708 353.741 290.472 594.481 45.764 240.73 60.615 471-37.141 630.72Z"/><path d="M582.898 1950.97c-75.577 125.93-238.738 196.98-397.531 223.13-157.548 23.99-311.974 5.24-472.687-57.37-161.958-60.45-331.903-164.32-355.865-294.55-23.963-130.22 99.302-288.97 204.9-432.05 106.843-145.23 198.175-273.56 343.636-356.26 147.617-81.463 349.364-117.301 480.512-35.835 130.691 79.765 190.329 275.135 225.923 462.375 35.594 187.23 47.144 366.34-28.888 490.56Z"/><path d="M409.83 1852.2c-53.983 89.95-170.527 140.7-283.95 159.37-112.535 17.14-222.839 3.75-337.634-40.97-115.684-43.18-237.073-117.37-254.189-210.39-17.116-93.02 70.93-206.41 146.357-308.61 76.316-103.74 141.553-195.4 245.454-254.48 105.441-58.18 249.546-83.78 343.223-25.59 93.351 56.98 135.949 196.53 161.373 330.27 25.425 133.74 33.675 261.67-20.634 350.4Z"/><path d="M1360.1 2389.47c-173.12 286.41-546.16 448.44-909.057 508.43-360.045 55.09-712.802 13.05-1079.766-128.65-369.815-136.79-757.727-372.19-812.007-668.02-54.28-295.82 227.92-656.98 469.705-982.48 244.631-330.4 453.764-622.32 786.405-810.77C152.941 122.35 614.011 40.19 913.357 224.831 1211.67 405.612 1347.22 849.333 1427.87 1274.66c80.65 425.32 106.4 832.26-67.77 1114.81Z"/><path d="M1187.54 2292.57c-151.49 250.61-477.894 392.39-795.428 444.88-315.04 48.21-623.702 11.42-944.796-112.56-323.588-119.7-663.006-325.67-710.506-584.52-47.49-258.85 199.43-574.86 410.992-859.67 214.052-289.104 397.043-544.534 688.104-709.427 295.366-162.427 698.802-234.317 960.73-72.756C1057.66 556.7 1176.27 944.956 1246.84 1317.12c70.56 372.16 93.09 728.22-59.3 975.45Z"/><path d="M1532.67 2486.36c-194.77 322.21-614.432 504.49-1022.691 571.99-405.051 61.97-801.902 14.67-1214.737-144.73-416.042-153.89-852.442-418.72-913.502-751.52-61.07-332.81 256.41-739.11 528.41-1105.3 275.213-371.696 510.487-700.106 884.708-912.112C174.614-64.146 693.318-156.577 1030.08 51.145c335.6 203.378 488.1 702.564 578.83 1181.055 90.73 478.49 119.7 936.29-76.24 1254.16Z"/><path d="M1014.98 2195.68c-129.85 214.81-409.628 336.33-681.8 381.32-270.034 41.32-534.601 9.79-809.824-96.48-277.362-102.59-568.296-279.14-609.006-501.02-40.71-221.87 170.943-492.73 352.279-736.86 183.473-247.797 340.323-466.737 589.804-608.075 253.171-139.222 598.973-200.843 823.482-62.362C903.649 707.789 1005.31 1040.58 1065.8 1359.57c60.49 319 79.8 624.2-50.82 836.11Z"/><path d="M842.412 2098.79c-108.205 179-341.353 280.27-568.163 317.77-225.029 34.43-445.502 8.15-674.854-80.41-231.135-85.49-473.577-232.62-507.502-417.51-33.925-184.89 142.45-410.62 293.563-614.05 152.894-206.5 283.602-388.951 491.503-506.732C87.935 681.839 376.104 630.489 563.195 745.89c186.444 112.987 271.165 390.31 321.571 656.14 50.406 265.83 66.497 520.16-42.354 696.76Z"/><path d="M497.279 1905c-64.923 107.4-204.812 168.17-340.898 190.66-135.017 20.66-267.3 4.9-404.912-48.24-138.681-51.3-284.146-139.57-304.501-250.51-20.355-110.93 85.47-246.37 176.138-368.43 91.736-123.9 170.161-233.37 294.902-304.04 126.585-69.61 299.486-100.42 411.741-31.18 111.867 67.79 162.699 234.19 192.943 393.69 30.243 159.49 39.898 312.09-25.413 418.05Z"/><path d="M497.279 1905c-64.923 107.4-204.812 168.17-340.898 190.66-135.017 20.66-267.3 4.9-404.912-48.24-138.681-51.3-284.146-139.57-304.501-250.51-20.355-110.93 85.47-246.37 176.138-368.43 91.736-123.9 170.161-233.37 294.902-304.04 126.585-69.61 299.486-100.42 411.741-31.18 111.867 67.79 162.699 234.19 192.943 393.69 30.243 159.49 39.898 312.09-25.413 418.05Z"/><path d="M324.715 1808.11c-43.282 71.6-136.541 112.11-227.265 127.11-90.012 13.77-178.201 3.26-269.942-32.17-92.454-34.19-189.431-93.04-203.001-167-13.57-73.96 56.98-164.25 117.425-245.62 61.158-82.6 113.441-155.58 196.602-202.69 84.39-46.41 199.658-66.95 274.494-20.79 74.578 45.19 108.466 156.12 128.628 262.46 20.163 106.33 26.599 208.06-16.941 278.7Z"/><path d="M324.715 1808.11c-43.282 71.6-136.541 112.11-227.265 127.11-90.012 13.77-178.201 3.26-269.942-32.17-92.454-34.19-189.431-93.04-203.001-167-13.57-73.96 56.98-164.25 117.425-245.62 61.158-82.6 113.441-155.58 196.602-202.69 84.39-46.41 199.658-66.95 274.494-20.79 74.578 45.19 108.466 156.12 128.628 262.46 20.163 106.33 26.599 208.06-16.941 278.7Z"/><path d="M240.858 1768.71c-32.461 53.7-102.406 84.08-170.449 95.33-67.508 10.33-133.65 2.45-202.456-24.12-69.34-25.65-142.073-69.78-152.25-125.25-10.178-55.47 42.735-123.19 88.068-184.22 45.869-61.95 85.081-116.68 147.451-152.02 63.293-34.8 149.744-50.21 205.871-15.59 55.934 33.9 81.35 117.1 96.471 196.85 15.122 79.74 19.95 156.04-12.706 209.02Z"/><path d="M240.858 1768.71c-32.461 53.7-102.406 84.08-170.449 95.33-67.508 10.33-133.65 2.45-202.456-24.12-69.34-25.65-142.073-69.78-152.25-125.25-10.178-55.47 42.735-123.19 88.068-184.22 45.869-61.95 85.081-116.68 147.451-152.02 63.293-34.8 149.744-50.21 205.871-15.59 55.934 33.9 81.35 117.1 96.471 196.85 15.122 79.74 19.95 156.04-12.706 209.02Z"/><path d="M152.151 1711.21c-21.641 35.81-68.27 56.06-113.633 63.56-45.006 6.88-89.1 1.63-134.97-16.08-46.227-17.1-94.716-46.53-101.501-83.51-6.785-36.97 28.49-82.12 58.713-122.81 30.579-41.3 56.72-77.79 98.3-101.34 42.195-23.21 99.83-33.48 137.247-10.4 37.289 22.6 54.233 78.07 64.315 131.23 10.081 53.17 13.299 104.04-8.471 139.35Z"/><path d="M152.151 1711.21c-21.641 35.81-68.27 56.06-113.633 63.56-45.006 6.88-89.1 1.63-134.97-16.08-46.227-17.1-94.716-46.53-101.501-83.51-6.785-36.97 28.49-82.12 58.713-122.81 30.579-41.3 56.72-77.79 98.3-101.34 42.195-23.21 99.83-33.48 137.247-10.4 37.289 22.6 54.233 78.07 64.315 131.23 10.081 53.17 13.299 104.04-8.471 139.35Z"/><path d="M68.294 1671.82c-10.82 17.9-34.135 28.03-56.816 31.78-22.503 3.44-44.55.81-67.486-8.04-23.113-8.55-47.357-23.27-50.75-41.76-3.392-18.49 14.245-41.06 29.356-61.4 15.29-20.65 28.36-38.9 49.15-50.67 21.098-11.61 49.915-16.74 68.624-5.2 18.645 11.3 27.117 39.03 32.157 65.61 5.041 26.59 6.65 52.02-4.235 69.68Z"/><path d="M68.294 1671.82c-10.82 17.9-34.135 28.03-56.816 31.78-22.503 3.44-44.55.81-67.486-8.04-23.113-8.55-47.357-23.27-50.75-41.76-3.392-18.49 14.245-41.06 29.356-61.4 15.29-20.65 28.36-38.9 49.15-50.67 21.098-11.61 49.915-16.74 68.624-5.2 18.645 11.3 27.117 39.03 32.157 65.61 5.041 26.59 6.65 52.02-4.235 69.68Z"/><path d="M669.843 2001.89c-86.564 143.21-273.082 224.22-454.53 254.22-180.023 27.55-356.401 6.52-539.883-64.32-184.908-68.4-378.862-186.1-406.002-334.01-27.14-147.92 113.96-328.5 234.851-491.24 122.315-165.2 226.882-311.16 393.202-405.39 168.78-92.815 399.316-133.895 548.989-41.574 149.155 90.394 216.932 312.254 257.257 524.914 40.324 212.66 53.198 416.13-33.884 557.4Z"/><path d="M669.843 2001.89c-86.564 143.21-273.082 224.22-454.53 254.22-180.023 27.55-356.401 6.52-539.883-64.32-184.908-68.4-378.862-186.1-406.002-334.01-27.14-147.92 113.96-328.5 234.851-491.24 122.315-165.2 226.882-311.16 393.202-405.39 168.78-92.815 399.316-133.895 548.989-41.574 149.155 90.394 216.932 312.254 257.257 524.914 40.324 212.66 53.198 416.13-33.884 557.4Z"/></g></svg>