<svg width="768" height="1271" fill="none" xmlns="http://www.w3.org/2000/svg"><g opacity=".07" stroke="#000"><path d="M1909.42 2583.94c-215.93 359.79-682.11 562.78-1135.801 637.5-450.139 68.55-891.355 14.99-1350.536-163.9-462.733-172.73-948.293-469.49-1016.753-841.57-68.47-372.08 283.72-825.64 585.42-1234.436 305.27-414.957 566.218-781.6 981.823-1017.897C395.336-269.104 971.755-371.499 1346.46-138.739c373.41 227.902 543.8 786.102 645.5 1321.059 101.69 534.96 134.7 1046.69-82.54 1401.62Z"/><path d="M1825.31 2543.6c-205.14 341.8-648 534.65-1079.01 605.63-427.632 65.13-846.787 14.24-1283.008-155.7-439.599-164.1-900.882-446.02-965.922-799.5-65.04-353.47 269.54-784.35 556.16-1172.71C-656.469 627.11-408.567 278.799-13.743 54.317 386.932-166.787 934.53-264.062 1290.5-42.94c354.74 216.507 516.61 746.797 613.22 1255.01 96.61 508.21 127.97 994.35-78.41 1331.53Z"/><path d="M1652.24 2444.83c-183.54 305.82-579.79 478.37-965.429 541.88-382.618 58.27-757.652 12.74-1147.955-139.32-393.326-146.82-806.046-399.06-864.246-715.33-58.19-316.27 241.16-701.79 497.617-1049.27C-568.298 730.074-346.492 418.428 6.772 217.575 365.27 19.745 855.227-67.29 1173.73 130.556c317.39 193.717 462.23 668.186 548.67 1122.904 86.44 454.72 114.49 889.68-70.16 1191.37Z"/><path d="M1479.17 2346.06c-161.95 269.84-511.576 422.09-851.847 478.12-337.604 51.42-668.516 11.25-1012.901-122.92-347.052-129.55-711.222-352.12-762.572-631.18-51.34-279.06 212.793-619.22 439.075-925.82 228.949-311.222 424.66-586.204 736.364-763.426C343.61 206.278 775.926 129.482 1056.96 304.051c280.05 170.927 407.84 589.577 484.12 990.799 76.27 401.22 101.02 785.01-61.91 1051.21Z"/><path d="M1306.1 2247.29c-140.35 233.86-443.365 365.81-738.267 414.37-292.59 44.56-579.38 9.75-877.848-106.53-300.778-112.28-616.39-305.17-660.892-547.02-44.503-241.85 184.418-536.67 380.529-802.39 198.422-269.717 368.039-508.035 638.182-661.628C321.95 392.81 696.622 326.253 940.182 477.547 1182.9 625.684 1293.65 988.513 1359.75 1336.24c66.11 347.72 87.56 680.34-53.65 911.05Z"/><path d="M1133.04 2148.52c-118.77 197.88-375.162 309.53-624.694 350.62-247.576 37.71-490.245 8.25-742.794-90.14-254.505-95.01-521.562-258.22-559.217-462.87-37.655-204.64 156.046-454.1 321.986-678.94 167.896-228.22 311.417-429.877 540-559.84 231.97-128.008 549-184.325 755.089-56.307 205.37 125.346 299.09 432.357 355.02 726.587 55.94 294.23 74.09 575.67-45.39 770.89Z"/><path d="M959.968 2049.74c-97.171 161.91-306.949 253.26-511.111 286.88-202.563 30.85-401.11 6.75-607.741-73.76-208.231-77.72-426.732-211.27-457.541-378.7-30.809-167.44 127.674-371.54 263.443-555.5 137.369-186.73 254.796-351.718 441.818-458.052 189.794-104.733 449.182-150.811 617.8-46.069 168.033 102.556 244.709 353.741 290.473 594.481 45.761 240.73 60.611 471-37.141 630.72Z"/><path d="M786.9 1950.97c-75.577 125.93-238.738 196.98-397.531 223.13-157.548 23.99-311.974 5.24-472.687-57.37-161.957-60.45-331.902-164.32-355.865-294.55-23.963-130.22 99.302-288.97 204.9-432.05 106.843-145.23 198.175-273.56 343.636-356.26 147.618-81.463 349.364-117.301 480.512-35.835 130.692 79.765 190.329 275.135 225.923 462.375 35.594 187.23 47.145 366.34-28.888 490.56Z"/><path d="M613.83 1852.2c-53.983 89.95-170.527 140.7-283.95 159.37-112.535 17.14-222.839 3.75-337.634-40.97-115.684-43.18-237.073-117.37-254.189-210.39-17.116-93.02 70.93-206.41 146.357-308.61 76.316-103.74 141.553-195.4 245.454-254.48 105.441-58.18 249.546-83.78 343.223-25.59 93.351 56.98 135.949 196.53 161.373 330.27 25.425 133.74 33.675 261.67-20.634 350.4Z"/><path d="M1564.11 2389.47c-173.13 286.41-546.17 448.44-909.065 508.43C295 2952.99-57.757 2910.95-424.721 2769.25c-369.815-136.79-757.719-372.19-811.999-668.02-54.28-295.82 227.92-656.98 469.697-982.48 244.631-330.4 453.764-622.32 786.405-810.77C356.943 122.35 818.013 40.19 1117.36 224.831c298.31 180.781 433.86 624.502 514.51 1049.829 80.65 425.32 106.4 832.26-67.76 1114.81Z"/><path d="M1391.54 2292.57c-151.49 250.61-477.894 392.39-795.428 444.88-315.04 48.21-623.702 11.42-944.796-112.56-323.588-119.7-663.006-325.67-710.506-584.52-47.49-258.85 199.434-574.86 410.992-859.67 214.052-289.104 397.043-544.534 688.104-709.427 295.366-162.427 698.802-234.317 960.734-72.756 261.02 158.183 379.63 546.439 450.2 918.603 70.56 372.16 93.09 728.22-59.3 975.45Z"/><path d="M1736.67 2486.36c-194.77 322.21-614.43 504.49-1022.693 571.99-405.051 61.97-801.902 14.67-1214.737-144.73-416.042-153.89-852.44-418.72-913.5-751.52-61.07-332.81 256.41-739.11 528.41-1105.3C-610.64 685.104-375.366 356.694-1.144 144.688 378.612-64.146 897.316-156.577 1234.08 51.145c335.6 203.378 488.1 702.564 578.83 1181.055 90.73 478.49 119.69 936.29-76.24 1254.16Z"/><path d="M1218.98 2195.68c-129.85 214.81-409.628 336.33-681.8 381.32-270.034 41.32-534.601 9.79-809.824-96.48-277.362-102.59-568.293-279.14-609.003-501.02-40.709-221.87 170.94-492.73 352.276-736.86 183.473-247.797 340.323-466.737 589.804-608.075 253.171-139.222 598.973-200.843 823.482-62.362C1107.65 707.789 1209.31 1040.58 1269.8 1359.57c60.49 319 79.8 624.2-50.82 836.11Z"/><path d="M1046.41 2098.79c-108.205 179-341.353 280.27-568.164 317.77-225.028 34.43-445.5 8.15-674.853-80.41-231.135-85.49-473.577-232.62-507.502-417.51-33.925-184.89 142.45-410.62 293.563-614.05 152.894-206.5 283.602-388.951 491.503-506.732C291.933 681.839 580.1 630.489 767.193 745.89c186.444 112.987 271.167 390.31 321.567 656.14 50.41 265.83 66.5 520.16-42.35 696.76Z"/><path d="M701.281 1905c-64.923 107.4-204.812 168.16-340.898 190.66-135.017 20.66-267.3 4.9-404.912-48.24-138.681-51.3-284.146-139.57-304.501-250.51-20.355-110.93 85.47-246.37 176.138-368.43 91.736-123.9 170.161-233.37 294.902-304.04 126.585-69.61 299.486-100.42 411.741-31.18 111.867 67.79 162.699 234.19 192.943 393.69 30.243 159.49 39.898 312.09-25.413 418.05Z"/><path d="M701.281 1905c-64.923 107.4-204.812 168.16-340.898 190.66-135.017 20.66-267.3 4.9-404.912-48.24-138.681-51.3-284.146-139.57-304.501-250.51-20.355-110.93 85.47-246.37 176.138-368.43 91.736-123.9 170.161-233.37 294.902-304.04 126.585-69.61 299.486-100.42 411.741-31.18 111.867 67.79 162.699 234.19 192.943 393.69 30.243 159.49 39.898 312.09-25.413 418.05Z"/><path d="M528.715 1808.11c-43.282 71.6-136.541 112.11-227.265 127.11-90.012 13.77-178.201 3.26-269.942-32.17-92.454-34.19-189.431-93.04-203.001-167-13.57-73.96 56.98-164.25 117.425-245.62 61.158-82.6 113.442-155.58 196.602-202.69 84.39-46.41 199.658-66.95 274.494-20.79 74.578 45.19 108.466 156.12 128.628 262.46 20.163 106.33 26.599 208.06-16.941 278.7Z"/><path d="M528.715 1808.11c-43.282 71.6-136.541 112.11-227.265 127.11-90.012 13.77-178.201 3.26-269.942-32.17-92.454-34.19-189.431-93.04-203.001-167-13.57-73.96 56.98-164.25 117.425-245.62 61.158-82.6 113.442-155.58 196.602-202.69 84.39-46.41 199.658-66.95 274.494-20.79 74.578 45.19 108.466 156.12 128.628 262.46 20.163 106.33 26.599 208.06-16.941 278.7Z"/><path d="M873.846 2001.89c-86.564 143.21-273.083 224.22-454.531 254.22-180.023 27.55-356.401 6.52-539.883-64.32-184.908-68.4-378.862-186.1-406.002-334.01-27.139-147.92 113.96-328.5 234.851-491.24 122.315-165.2 226.882-311.16 393.202-405.39 168.781-92.815 399.316-133.895 548.989-41.574 149.156 90.394 216.932 312.254 257.257 524.914 40.325 212.66 53.198 416.13-33.883 557.4Z"/><path d="M873.846 2001.89c-86.564 143.21-273.083 224.22-454.531 254.22-180.023 27.55-356.401 6.52-539.883-64.32-184.908-68.4-378.862-186.1-406.002-334.01-27.139-147.92 113.96-328.5 234.851-491.24 122.315-165.2 226.882-311.16 393.202-405.39 168.781-92.815 399.316-133.895 548.989-41.574 149.156 90.394 216.932 312.254 257.257 524.914 40.325 212.66 53.198 416.13-33.883 557.4Z"/></g></svg>