<svg width="93" height="93" fill="none" xmlns="http://www.w3.org/2000/svg"><circle cx="46.5" cy="46.5" r="42" fill="#5BC3E3" stroke="#fff" stroke-width="9"/><g clip-path="url(#a)"><path d="m54.492 33.976.207.18v-3.51c0-.562.456-1.017 1.018-1.017h4.57c.562 0 1.018.455 1.018 1.017v9.266l.043.037a8617.763 8617.763 0 0 0 4.178 3.641c.424.37.468 1.012.099 1.436l.094.082-.094-.082a1.018 1.018 0 0 1-1.436.099l-.392-.342-.207-.18v18.036c0 .562-.456 1.017-1.018 1.017H30.428a1.018 1.018 0 0 1-1.018-1.017V44.603l-.207.18-.392.342a1.018 1.018 0 0 1-1.337-1.535l-.082-.094.082.094 18.357-15.996a1.018 1.018 0 0 1 1.337 0l7.324 6.382Zm2.367-2.312h-.125v4.265l.043.038 2.285 1.991.208.18v-6.474h-2.411ZM45.232 61.496v.125h2.535v-8.543c0-.43.272-.814.677-.959 2.372-.843 3.97-3.042 3.97-5.476 0-1.853-.925-3.57-2.413-4.656l-.198-.145v4.801c0 .27-.107.528-.298.719l-2.286 2.285a1.017 1.017 0 0 1-1.438 0l-.089.089.089-.089-2.286-2.285c-.19-.19-.298-.45-.298-.72v-4.79l-.2.15a5.814 5.814 0 0 0-2.335 4.64c0 2.45 1.565 4.65 3.894 5.477l.041-.117-.041.117c.405.145.676.529.676.96v8.417Zm16.198.125h.125V42.83l-.043-.037-14.93-13.01-.082-.071-.082.072-14.93 13.009-.043.037V61.621h11.752V53.761l-.071-.034c-2.721-1.294-4.5-4.048-4.5-7.084 0-3.307 2.11-6.279 5.248-7.395a1.018 1.018 0 0 1 1.358.959V46.22l.037.037L46.41 47.4l.089.089.088-.089 1.143-1.142.036-.037V40.207a1.018 1.018 0 0 1 1.359-.959c3.186 1.133 5.323 4.106 5.323 7.395 0 3.024-1.807 5.78-4.575 7.085l-.071.034v7.859H61.43Z" fill="#fff" stroke="#5BC3E3" stroke-width=".25"/></g><defs><clipPath id="a"><path fill="#fff" transform="translate(27 26)" d="M0 0h39v39H0z"/></clipPath></defs></svg>
