<svg width="93" height="93" fill="none" xmlns="http://www.w3.org/2000/svg"><circle cx="46.5" cy="46.5" r="42" fill="#5BC3E3" stroke="#fff" stroke-width="9"/><path d="M55.547 29.203a.956.956 0 0 0-.672-.278h-17.5a4.455 4.455 0 0 0-4.45 4.45v26.25a4.455 4.455 0 0 0 4.45 4.45h19.25a4.455 4.455 0 0 0 4.45-4.45v-24.5c0-.253-.1-.494-.277-.672l-5.25-5.25Zm3.628 30.422a2.553 2.553 0 0 1-2.55 2.55h-19.25a2.553 2.553 0 0 1-2.55-2.55v-26.25a2.553 2.553 0 0 1 2.55-2.55h17.107l4.693 4.693v24.107Z" fill="#fff" stroke="#fff" stroke-width=".15"/><path d="M52.25 55.175h-10.5a.95.95 0 0 0 0 1.9h10.5a.95.95 0 0 0 0-1.9ZM46.576 51.724a.95.95 0 0 1-.425-1.274l.425 1.274Zm0 0a.954.954 0 0 0 1.275-.424l3.5-7a.946.946 0 0 0-.042-.923.955.955 0 0 0-.81-.452h-5.462l2.812-5.624a.95.95 0 0 0-.425-1.275l-.034.067.034-.067a.95.95 0 0 0-1.275.425l-3.5 7 .067.034-.067-.034a.946.946 0 0 0 .042.924c.173.28.48.45.809.45h5.463l-2.812 5.624.425 1.275Z" fill="#fff" stroke="#fff" stroke-width=".15"/></svg>
