<svg width="16" height="18" fill="none" xmlns="http://www.w3.org/2000/svg"><path d="M10.713 8.346a4.612 4.612 0 0 0 1.902-3.73A4.62 4.62 0 0 0 8 0a4.62 4.62 0 0 0-4.615 4.615c0 1.532.75 2.891 1.901 3.731C2.423 9.442.385 12.218.385 15.461c0 1.4 1.138 2.539 2.538 2.539h10.154c1.4 0 2.538-1.139 2.538-2.539 0-3.243-2.038-6.02-4.902-7.115ZM4.77 4.616c0-1.782 1.45-3.231 3.23-3.231 1.782 0 3.232 1.449 3.232 3.23 0 1.782-1.45 3.231-3.231 3.231a3.234 3.234 0 0 1-3.23-3.23Zm8.308 12H2.923a1.155 1.155 0 0 1-1.154-1.155A6.238 6.238 0 0 1 8 9.231a6.238 6.238 0 0 1 6.232 6.23c0 .637-.518 1.154-1.154 1.154Z" fill="#fff"/></svg>