<svg width="93" height="93" fill="none" xmlns="http://www.w3.org/2000/svg"><circle cx="46.5" cy="46.5" r="42" fill="#5BC3E3" stroke="#fff" stroke-width="9"/><path d="M42.984 31.381c-2.639-2.638-6.588-3.056-9.677-1.392a1.026 1.026 0 0 0-.239 1.628l3.849 3.848a1.026 1.026 0 0 1-1.45 1.45l-3.849-3.848a1.026 1.026 0 0 0-1.628.239c-1.657 3.077-1.255 7.03 1.393 9.676a8.2 8.2 0 0 0 7.925 2.124l3.676-13.725Zm0 0a8.2 8.2 0 0 1 2.124 7.925l2.048 2.048.07.07.071-.07 5.458-5.457.07-.071-.07-.07-.655-.655-9.116-3.72Zm10.64 16.584.041.04.056-.015a8.101 8.101 0 0 1 7.829 2.099c2.614 2.614 3.012 6.518 1.375 9.558a.925.925 0 0 1-1.47.215l-.07.071.07-.07-3.848-3.849a1.127 1.127 0 0 0-1.591 1.592l3.848 3.848a.925.925 0 0 1-.216 1.47c-3.052 1.643-6.953 1.23-9.558-1.376a8.1 8.1 0 0 1-2.098-7.828l.015-.056-.041-.04-.669-.669-.07-.07-.07.07-9.473 9.472a5.033 5.033 0 0 1-7.11 0 5.022 5.022 0 0 1 0-7.11l-.07-.07.07.07 9.473-9.472.07-.07-.07-.071-.669-.668-.04-.041-.056.015a8.1 8.1 0 0 1-7.829-2.098c-2.614-2.615-3.012-6.518-1.375-9.559a.925.925 0 0 1 1.47-.215l3.848 3.848a1.127 1.127 0 0 0 1.591-1.591l-3.848-3.849a.925.925 0 0 1 .216-1.469c3.051-1.644 6.952-1.23 9.558 1.375a8.1 8.1 0 0 1 2.098 7.829l-.015.055.041.041 2.119 2.119.07.07.071-.07 5.599-5.6.07-.07-.07-.07-.725-.726a.926.926 0 0 1 .178-1.448l7.25-4.35a.925.925 0 0 1 1.131.139l2.9 2.9.071-.07-.07.07c.3.3.357.767.139 1.13l.086.052-.086-.051-4.35 7.25a.925.925 0 0 1-1.449.179l-.07.07.07-.07-.725-.725-.07-.071-.071.07-5.599 5.6-.07.07.07.071 2.119 2.119Zm6.364-16.72-.056-.054-.066.04-5.438 3.263-.11.066.09.09 3.944 3.943.09.09.066-.109 3.263-5.438.04-.067-.055-.055-1.768-1.768Zm-5.642 5.96-.07-.07-.071.07-5.6 5.6-.07.07.07.07 1.45 1.45.072.072.07-.071 5.6-5.6.07-.07-.07-.07-1.45-1.45ZM31.884 61.118l.07-.07-.07.07a3.18 3.18 0 0 0 4.492 0l9.471-9.472.071-.07-.07-.071-4.352-4.35-.07-.072-.07.071-9.473 9.472a3.172 3.172 0 0 0 0 4.492ZM61.67 57.46l.122.122.045-.166a6.174 6.174 0 0 0-1.596-6.018l-.07.07.07-.07a6.286 6.286 0 0 0-6.523-1.47.925.925 0 0 1-.965-.217l-9.462-9.463a.925.925 0 0 1-.218-.964 6.285 6.285 0 0 0-1.469-6.523 6.173 6.173 0 0 0-6.018-1.597l-.166.046.122.121 2.754 2.755a2.98 2.98 0 0 1 0 4.209 2.98 2.98 0 0 1-4.209 0l-2.754-2.755-.122-.121-.045.166a6.174 6.174 0 0 0 1.596 6.018 6.285 6.285 0 0 0 6.523 1.47.925.925 0 0 1 .965.217l9.462 9.462.07-.07-.07.07a.925.925 0 0 1 .217.965 6.285 6.285 0 0 0 1.47 6.523 6.174 6.174 0 0 0 6.018 1.596l.166-.045-.122-.122-2.754-2.754a2.98 2.98 0 0 1 0-4.21 2.98 2.98 0 0 1 4.209 0l2.754 2.755Z" fill="#fff" stroke="#5BC3E3" stroke-width=".2"/><path d="M42.262 52.253a.926.926 0 0 0-1.309-1.308m1.309 1.308-1.38-1.379.071.07m1.309 1.31-6.266 6.266m6.266-6.267-6.266 6.267m4.957-7.575-6.266 6.266 6.266-6.266Zm-6.266 7.575a.925.925 0 0 1 0-1.31v1.31Zm0 0a.925.925 0 0 0 1.309 0m-1.309 0h1.309" fill="#fff" stroke="#5BC3E3" stroke-width=".2"/></svg>