<svg width="93" height="93" fill="none" xmlns="http://www.w3.org/2000/svg"><circle cx="46.5" cy="46.5" r="42" fill="#5BC3E3" stroke="#fff" stroke-width="9"/><path d="M61.36 46.509H50.884V38.09H61.36a.946.946 0 0 0 0-1.892H50.747a1.895 1.895 0 0 0-1.76-1.2h-1.893c-.344 0-.667.094-.946.255a1.88 1.88 0 0 0-.946-.254H43.31c-.8 0-1.483.497-1.76 1.199H30.946a.946.946 0 1 0 0 1.892h10.471v8.418h-10.47a.946.946 0 1 0 0 1.892H41.55a1.895 1.895 0 0 0 1.76 1.198h1.892c.344 0 .668-.093.946-.254.279.161.602.255.946.255h1.893c.798 0 1.482-.498 1.76-1.199H61.36a.946.946 0 0 0 0-1.892Zm-18.05 1.198V36.892h1.892v10.815H43.31Zm5.677 0h-1.893V36.892h1.893v10.815ZM47.759 53.05c-.875-.89-1.229-1.054-1.61-1.054-.383 0-.737.163-1.612 1.055a21.856 21.856 0 0 0-1.704 1.983c-1.106 1.45-2.425 3.534-2.425 5.226a5.747 5.747 0 0 0 5.74 5.74 5.747 5.747 0 0 0 5.74-5.74c0-1.692-1.319-3.776-2.425-5.226a21.845 21.845 0 0 0-1.704-1.983Zm-1.61 11.058A3.852 3.852 0 0 1 42.3 60.26c0-.837.667-2.222 1.83-3.802a18.98 18.98 0 0 1 2.018-2.337 18.98 18.98 0 0 1 2.017 2.337c1.164 1.58 1.83 2.965 1.83 3.802a3.852 3.852 0 0 1-3.847 3.848Z" fill="#fff"/></svg>