<svg width="158" height="29" fill="none" xmlns="http://www.w3.org/2000/svg"><path d="M27.748 27.333c0 .376-.151.736-.42 1.002-.27.266-.636.415-1.017.415H6.187c-.381 0-.747-.15-1.016-.415a1.406 1.406 0 0 1-.421-1.002v-12.75H.437l14.845-13.3a1.45 1.45 0 0 1 1.934 0l14.844 13.3h-4.312v12.75Zm-11.5-4.25 4.83-4.758c.3-.296.538-.648.7-1.034a3.146 3.146 0 0 0-.7-3.474 3.277 3.277 0 0 0-3.524-.691c-.394.16-.75.395-1.05.69l-.255.252-.254-.251a3.277 3.277 0 0 0-4.574 0c-.3.296-.539.647-.701 1.034a3.146 3.146 0 0 0 0 2.44c.162.386.4.738.7 1.034l4.829 4.758ZM46.434 24.176V9.482h3.25l5.131 9.075 5.16-9.075h3.193v14.694h-2.993v-10.34l-4.39 7.727h-1.967l-4.419-7.726v10.339h-2.965ZM73.337 24.457c-1.178 0-2.233-.197-3.164-.59a7.576 7.576 0 0 1-2.423-1.686 7.729 7.729 0 0 1-1.54-2.416 7.907 7.907 0 0 1-.54-2.922c0-1.03.18-2.004.54-2.922a7.324 7.324 0 0 1 1.54-2.416 7.217 7.217 0 0 1 2.423-1.658c.95-.412 2.005-.618 3.164-.618 1.16 0 2.205.206 3.136.618.95.394 1.758.946 2.423 1.658a7.104 7.104 0 0 1 1.568 2.416c.36.918.541 1.892.541 2.922 0 1.03-.18 2.004-.541 2.922a7.484 7.484 0 0 1-1.568 2.416 7.181 7.181 0 0 1-2.423 1.686c-.931.393-1.977.59-3.136.59ZM68.89 16.87c0 .936.2 1.78.599 2.529.399.749.931 1.339 1.596 1.77.665.43 1.416.646 2.252.646.817 0 1.559-.216 2.224-.646a4.824 4.824 0 0 0 1.625-1.799 5.4 5.4 0 0 0 .598-2.528c0-.937-.2-1.78-.598-2.529-.4-.749-.941-1.339-1.625-1.77a3.883 3.883 0 0 0-2.224-.674 3.93 3.93 0 0 0-2.252.674 4.917 4.917 0 0 0-1.596 1.798c-.4.73-.599 1.574-.599 2.529ZM83.501 24.176V9.51h3.136v10.536l7.554-10.564h2.851v14.694h-3.136V13.865l-7.468 10.31H83.5Zm6.785-16.211c-1.406 0-2.5-.347-3.278-1.04-.76-.693-1.14-1.564-1.14-2.612h2.052c0 .543.18.992.542 1.348.38.356.988.534 1.824.534.817 0 1.397-.169 1.739-.506.361-.337.58-.796.655-1.377h2.053c0 1.05-.39 1.92-1.169 2.613-.76.693-1.853 1.04-3.278 1.04ZM105.837 27.688V21.45h.342c.399 0 .769-.112 1.111-.337.343-.224.647-.608.913-1.152.266-.561.484-1.33.655-2.303.171-.993.276-2.239.314-3.737l.171-4.439h10.633V21.45h2.052v6.238h-2.765v-3.512h-10.69v3.512h-2.736Zm4.475-6.238h6.528v-9.299h-4.732l-.086 2.05c-.057 1.424-.161 2.623-.313 3.597-.133.974-.323 1.751-.57 2.332-.228.58-.504 1.02-.827 1.32ZM131.103 24.457c-1.179 0-2.233-.197-3.165-.59a7.576 7.576 0 0 1-2.423-1.686 7.728 7.728 0 0 1-1.539-2.416 7.91 7.91 0 0 1-.542-2.922c0-1.03.181-2.004.542-2.922a7.323 7.323 0 0 1 1.539-2.416 7.217 7.217 0 0 1 2.423-1.658c.951-.412 2.005-.618 3.165-.618 1.159 0 2.204.206 3.135.618.95.394 1.758.946 2.423 1.658a7.105 7.105 0 0 1 1.568 2.416 7.91 7.91 0 0 1 .542 2.922 7.91 7.91 0 0 1-.542 2.922 7.485 7.485 0 0 1-1.568 2.416 7.18 7.18 0 0 1-2.423 1.686c-.931.393-1.976.59-3.135.59Zm-4.447-7.586c0 .936.199 1.78.598 2.529.399.749.931 1.339 1.597 1.77.665.43 1.415.646 2.252.646.817 0 1.558-.216 2.223-.646a4.825 4.825 0 0 0 1.625-1.799c.399-.767.599-1.61.599-2.528 0-.937-.2-1.78-.599-2.529a4.604 4.604 0 0 0-1.625-1.77 3.882 3.882 0 0 0-2.223-.674c-.837 0-1.587.225-2.252.674a4.91 4.91 0 0 0-1.597 1.798c-.399.73-.598 1.574-.598 2.529ZM141.267 24.176V9.482h3.25l5.131 9.075 5.159-9.075H158v14.694h-2.993v-10.34l-4.39 7.727h-1.967l-4.419-7.726v10.339h-2.964Z" fill="#fff"/><path fill-rule="evenodd" clip-rule="evenodd" d="m16.249 23.083 4.828-4.758c.3-.296.539-.648.701-1.034a3.146 3.146 0 0 0-.7-3.474 3.277 3.277 0 0 0-3.524-.691c-.394.16-.75.395-1.05.69l-.255.252-.254-.251a3.277 3.277 0 0 0-4.574 0c-.3.296-.539.647-.701 1.034a3.146 3.146 0 0 0 0 2.44c.162.386.4.738.7 1.034l4.829 4.758Zm11.5 4.25c0 .376-.152.736-.422 1.002s-.635.415-1.016.415H6.187c-.381 0-.747-.15-1.016-.415a1.406 1.406 0 0 1-.421-1.002v-12.75H.437l14.845-13.3a1.45 1.45 0 0 1 1.934 0l14.844 13.3h-4.312v12.75Z" fill="#fff"/></svg>