<svg width="157" height="29" fill="none" xmlns="http://www.w3.org/2000/svg"><path d="M27.567 27.333c0 .376-.15.736-.418 1.002a1.435 1.435 0 0 1-1.01.415H6.142c-.379 0-.742-.15-1.01-.415a1.41 1.41 0 0 1-.419-1.002v-12.75H.428l14.751-13.3a1.435 1.435 0 0 1 1.923 0l14.75 13.3h-4.285v12.75Zm-11.427-4.25 4.798-4.758a3.185 3.185 0 0 0 .942-2.254 3.165 3.165 0 0 0-.942-2.254 3.215 3.215 0 0 0-2.272-.934 3.238 3.238 0 0 0-2.273.934l-.253.25-.252-.25a3.215 3.215 0 0 0-2.273-.934 3.238 3.238 0 0 0-2.273.934 3.188 3.188 0 0 0-.94 2.254 3.165 3.165 0 0 0 .94 2.254l4.798 4.758ZM46.136 24.176V9.482h3.23l5.098 9.075 5.127-9.075h3.173v14.694H59.79v-10.34l-4.363 7.727h-1.954l-4.39-7.726v10.339h-2.947ZM72.87 24.457c-1.171 0-2.22-.197-3.145-.59a7.529 7.529 0 0 1-2.407-1.686 7.735 7.735 0 0 1-1.53-2.416 7.952 7.952 0 0 1-.538-2.922c0-1.03.18-2.004.538-2.922a7.33 7.33 0 0 1 1.53-2.416 7.17 7.17 0 0 1 2.407-1.658c.945-.412 1.993-.618 3.145-.618s2.19.206 3.116.618a6.814 6.814 0 0 1 2.407 1.658c.68.693 1.2 1.498 1.558 2.416.36.918.539 1.892.539 2.922 0 1.03-.18 2.004-.538 2.922a7.489 7.489 0 0 1-1.558 2.416 7.136 7.136 0 0 1-2.408 1.686c-.926.393-1.964.59-3.116.59Zm-4.42-7.586c0 .936.199 1.78.596 2.529.396.749.925 1.339 1.586 1.77.66.43 1.407.646 2.238.646a3.96 3.96 0 0 0 2.21-.646 4.813 4.813 0 0 0 1.614-1.799c.396-.767.595-1.61.595-2.528 0-.937-.199-1.78-.595-2.529a4.593 4.593 0 0 0-1.615-1.77 3.841 3.841 0 0 0-2.21-.674c-.83 0-1.576.225-2.237.674a4.905 4.905 0 0 0-1.586 1.798c-.397.73-.595 1.574-.595 2.529ZM82.97 24.176V9.51h3.116v10.536l7.507-10.564h2.832v14.694H93.31V13.865l-7.421 10.31H82.97Zm6.742-16.211c-1.398 0-2.484-.347-3.258-1.04-.755-.693-1.133-1.564-1.133-2.612h2.04c0 .543.18.992.538 1.348.378.356.982.534 1.813.534.812 0 1.388-.169 1.728-.506.359-.337.576-.796.651-1.377h2.04c0 1.05-.387 1.92-1.162 2.613-.755.693-1.84 1.04-3.257 1.04ZM105.165 27.688V21.45h.34c.396 0 .764-.112 1.104-.337.34-.224.642-.608.907-1.152.264-.561.481-1.33.651-2.303.17-.993.274-2.239.312-3.737l.17-4.439h10.566V21.45h2.039v6.238h-2.747v-3.512h-10.623v3.512h-2.719Zm4.447-6.238h6.487v-9.299h-4.702l-.085 2.05c-.057 1.424-.161 2.623-.312 3.597-.132.974-.321 1.751-.566 2.332-.227.58-.501 1.02-.822 1.32ZM130.272 24.457c-1.171 0-2.219-.197-3.145-.59a7.519 7.519 0 0 1-2.407-1.686 7.738 7.738 0 0 1-1.53-2.416 7.948 7.948 0 0 1-.538-2.922c0-1.03.179-2.004.538-2.922a7.332 7.332 0 0 1 1.53-2.416 7.162 7.162 0 0 1 2.407-1.658c.945-.412 1.993-.618 3.145-.618s2.19.206 3.116.618a6.804 6.804 0 0 1 2.407 1.658c.68.693 1.2 1.498 1.558 2.416.359.918.539 1.892.539 2.922 0 1.03-.18 2.004-.539 2.922a7.472 7.472 0 0 1-1.558 2.416 7.124 7.124 0 0 1-2.407 1.686c-.926.393-1.964.59-3.116.59Zm-4.419-7.586c0 .936.198 1.78.595 2.529.396.749.925 1.339 1.586 1.77.661.43 1.407.646 2.238.646.812 0 1.548-.216 2.209-.646a4.816 4.816 0 0 0 1.615-1.799c.396-.767.595-1.61.595-2.528 0-.937-.199-1.78-.595-2.529a4.596 4.596 0 0 0-1.615-1.77 3.84 3.84 0 0 0-2.209-.674c-.831 0-1.577.225-2.238.674a4.9 4.9 0 0 0-1.586 1.798c-.397.73-.595 1.574-.595 2.529ZM140.372 24.176V9.482h3.229l5.099 9.075 5.127-9.075H157v14.694h-2.974v-10.34l-4.363 7.727h-1.954l-4.391-7.726v10.339h-2.946Z" fill="#5BC3E3"/><path fill-rule="evenodd" clip-rule="evenodd" d="m16.14 23.083 4.798-4.758a3.185 3.185 0 0 0 .942-2.254 3.165 3.165 0 0 0-.942-2.254 3.215 3.215 0 0 0-2.272-.934 3.238 3.238 0 0 0-2.273.934l-.253.25-.252-.25a3.215 3.215 0 0 0-2.273-.934 3.238 3.238 0 0 0-2.273.934 3.188 3.188 0 0 0-.94 2.254 3.165 3.165 0 0 0 .94 2.254l4.798 4.758Zm11.427 4.25c0 .376-.15.736-.418 1.002a1.435 1.435 0 0 1-1.01.415H6.142c-.379 0-.742-.15-1.01-.415a1.41 1.41 0 0 1-.419-1.002v-12.75H.428l14.751-13.3a1.435 1.435 0 0 1 1.923 0l14.75 13.3h-4.285v12.75Z" fill="#5BC3E3"/></svg>