<svg xmlns="http://www.w3.org/2000/svg" xmlns:xlink="http://www.w3.org/1999/xlink"><symbol id="icon-answer" viewBox="0 0 12 12">
      <rect y="5" width="12" height="2"/>
      <rect x="5" y="12" width="12" height="2" transform="rotate(-90 5 12)"/>
    </symbol><symbol id="icon-answer2" viewBox="0 0 12 12">
      <rect y="5" width="12" height="2" fill="red">
      <rect x="5" y="12" width="12" height="2" transform="rotate(-90 5 12)"/>
    </rect></symbol><symbol id="icon-arrow" viewBox="0 0 15 12"><g fill="none">
<path d="M8 11L13 6M13 6L8 1M13 6L0 6" stroke="#5BC3E3" stroke-width="1.75"/>
</g></symbol><symbol id="icon-btn-accordeon" viewBox="0 0 12 12"><g fill="none">
<rect y="5" width="12" height="2" fill="#5BC3E3"/>
<rect x="5" y="12" width="12" height="2" transform="rotate(-90 5 12)" fill="#5BC3E3"/>
</g></symbol><symbol id="icon-email" viewBox="0 0 20 20"><g fill="none">
<path d="M18.8413 4.90417L13.3823 10.328L18.8413 15.7519C18.94 15.5456 18.9999 15.3176 18.9999 15.0741V5.58195C18.9999 5.33842 18.94 5.11044 18.8413 4.90417Z" fill="#5BC3E3"/>
<path d="M17.4177 4H2.58183C2.3383 4 2.11031 4.05987 1.90405 4.15855L8.88125 11.1006C9.49817 11.7175 10.5014 11.7175 11.1183 11.1006L18.0955 4.15855C17.8892 4.05987 17.6612 4 17.4177 4Z" fill="#5BC3E3"/>
<path d="M1.15855 4.90417C1.05987 5.11044 1 5.33842 1 5.58195V15.0741C1 15.3176 1.05987 15.5457 1.15855 15.7519L6.61757 10.328L1.15855 4.90417Z" fill="#5BC3E3"/>
<path d="M12.6365 11.0739L11.864 11.8463C10.8361 12.8743 9.16344 12.8743 8.13551 11.8463L7.36306 11.0739L1.90405 16.4977C2.11031 16.5964 2.3383 16.6563 2.58183 16.6563H17.4177C17.6612 16.6563 17.8892 16.5964 18.0955 16.4977L12.6365 11.0739Z" fill="#5BC3E3"/>
</g></symbol><symbol id="icon-map" viewBox="0 0 16 20"><g fill="none">
<path d="M8.14884 0.952393C4.1282 0.952393 0.857178 4.22341 0.857178 8.24406C0.857178 9.53104 1.19721 10.7963 1.84047 11.9031C1.99044 12.1611 2.15807 12.4126 2.3388 12.6505L7.83203 20H8.46562L13.9589 12.6505C14.1396 12.4126 14.3072 12.1612 14.4572 11.9031C15.1005 10.7963 15.4405 9.53104 15.4405 8.24406C15.4405 4.22341 12.1695 0.952393 8.14884 0.952393ZM8.14884 10.6622C6.81547 10.6622 5.73069 9.57743 5.73069 8.24406C5.73069 6.91069 6.81547 5.8259 8.14884 5.8259C9.48221 5.8259 10.567 6.91069 10.567 8.24406C10.567 9.57743 9.48221 10.6622 8.14884 10.6622Z" fill="#5BC3E3"/>
</g></symbol><symbol id="icon-phone" viewBox="0 0 18 18"><g fill="none">
<path d="M16.5745 12.5619C16.5302 12.5268 13.3175 10.2111 12.4356 10.3773C12.0147 10.4518 11.774 10.7389 11.291 11.3136C11.2133 11.4065 11.0265 11.6288 10.8814 11.7869C10.5761 11.6874 10.2783 11.5662 9.99034 11.4243C8.5038 10.7006 7.30272 9.49949 6.57901 8.01294C6.437 7.72498 6.3158 7.42721 6.21634 7.12193C6.37501 6.97621 6.59736 6.78948 6.69234 6.70961C7.2644 6.22929 7.55205 5.98859 7.62653 5.56656C7.77926 4.69228 5.4651 1.45742 5.44082 1.42828C5.33582 1.27828 5.1988 1.1535 5.03966 1.06297C4.88052 0.972431 4.70324 0.9184 4.52066 0.904785C3.58269 0.904785 0.904785 4.37872 0.904785 4.96374C0.904785 4.99774 0.953896 8.45386 5.21577 12.7891C9.54672 17.0461 13.0023 17.0953 13.0363 17.0953C13.6219 17.0953 17.0953 14.4174 17.0953 13.4794C17.0818 13.2974 17.0281 13.1208 16.938 12.9621C16.848 12.8034 16.7238 12.6668 16.5745 12.5619Z" fill="#5BC3E3"/>
</g></symbol><symbol id="icon-select" viewBox="0 0 12 8">
<path d="M1 1.5L6 6.5L11 1.5" stroke-width="1.5" stroke-linecap="round" stroke-linejoin="round"/>
</symbol><symbol id="icon-tel" viewBox="0 0 19 16">
<path d="M1.18186 7.82732L5.2052 9.32754L6.7736 14.3737C6.8418 14.7147 7.25095 14.7829 7.52372 14.5783L9.77404 12.7371C9.97862 12.5326 10.3196 12.5326 10.5924 12.7371L14.6157 15.6694C14.8884 15.874 15.2976 15.7376 15.3658 15.3966L18.3662 1.07632C18.4344 0.735364 18.0935 0.394408 17.7525 0.530792L1.18186 6.94083C0.772712 7.07721 0.772712 7.69094 1.18186 7.82732ZM6.56904 8.57743L14.4793 3.73581C14.6157 3.66762 14.7521 3.87219 14.6157 3.94039L8.13744 10.0095C7.93287 10.214 7.72829 10.4868 7.72829 10.8278L7.52372 12.4644C7.52372 12.6689 7.18276 12.7371 7.11456 12.4644L6.29625 9.46393C6.09168 9.12297 6.22808 8.71381 6.56904 8.57743Z"/>
</symbol><symbol id="icon-user" viewBox="0 0 158 29"><g fill="none">
<path d="M27.7482 27.3333C27.7482 27.7091 27.5967 28.0694 27.3271 28.3351C27.0576 28.6007 26.692 28.75 26.3107 28.75H6.18704C5.80581 28.75 5.4402 28.6007 5.17064 28.3351C4.90107 28.0694 4.74963 27.7091 4.74963 27.3333V14.5833H0.437408L15.2815 1.28367C15.5462 1.04634 15.8911 0.914827 16.2489 0.914827C16.6067 0.914827 16.9516 1.04634 17.2163 1.28367L32.0604 14.5833H27.7482V27.3333ZM16.2489 23.0833L21.0771 18.3247C21.3775 18.0288 21.6157 17.6774 21.7782 17.2906C21.9408 16.9039 22.0244 16.4894 22.0244 16.0708C22.0244 15.6522 21.9408 15.2377 21.7782 14.851C21.6157 14.4643 21.3775 14.1129 21.0771 13.8169C20.7768 13.5209 20.4203 13.2861 20.0279 13.1259C19.6355 12.9658 19.2149 12.8833 18.7902 12.8833C18.3655 12.8833 17.9449 12.9658 17.5526 13.1259C17.1602 13.2861 16.8036 13.5209 16.5033 13.8169L16.2489 14.0677L15.9945 13.8169C15.6941 13.5209 15.3376 13.2861 14.9452 13.1259C14.5528 12.9658 14.1323 12.8833 13.7076 12.8833C13.2828 12.8833 12.8623 12.9658 12.4699 13.1259C12.0775 13.2861 11.721 13.5209 11.4206 13.8169C11.1203 14.1129 10.8821 14.4643 10.7196 14.851C10.557 15.2377 10.4734 15.6522 10.4734 16.0708C10.4734 16.4894 10.557 16.9039 10.7196 17.2906C10.8821 17.6774 11.1203 18.0288 11.4206 18.3247L16.2489 23.0833Z" fill="white"/>
<path d="M46.4344 24.1756V9.48197H49.6842L54.8153 18.5566L59.9749 9.48197H63.1676V24.1756H60.1745V13.8367L55.7845 21.5628H53.8176L49.3991 13.8367V24.1756H46.4344Z" fill="white"/>
<path d="M73.3372 24.4566C72.159 24.4566 71.1043 24.2599 70.173 23.8666C69.2418 23.4545 68.4342 22.8926 67.75 22.1809C67.0849 21.4692 66.5718 20.6638 66.2107 19.7647C65.8496 18.847 65.6691 17.873 65.6691 16.8428C65.6691 15.8127 65.8496 14.8387 66.2107 13.921C66.5718 13.0032 67.0849 12.1978 67.75 11.5048C68.4342 10.7931 69.2418 10.2405 70.173 9.8472C71.1233 9.43515 72.178 9.22912 73.3372 9.22912C74.4965 9.22912 75.5417 9.43515 76.4729 9.8472C77.4231 10.2405 78.2308 10.7931 78.896 11.5048C79.5801 12.1978 80.1027 13.0032 80.4638 13.921C80.8249 14.8387 81.0054 15.8127 81.0054 16.8428C81.0054 17.873 80.8249 18.847 80.4638 19.7647C80.1027 20.6638 79.5801 21.4692 78.896 22.1809C78.2308 22.8926 77.4231 23.4545 76.4729 23.8666C75.5417 24.2599 74.4965 24.4566 73.3372 24.4566ZM68.8903 16.8709C68.8903 17.8074 69.0898 18.6503 69.4889 19.3995C69.888 20.1487 70.4201 20.7387 71.0852 21.1695C71.7504 21.6003 72.5011 21.8157 73.3372 21.8157C74.1544 21.8157 74.8956 21.6003 75.5607 21.1695C76.2449 20.72 76.7865 20.1206 77.1856 19.3714C77.5847 18.6035 77.7842 17.7606 77.7842 16.8428C77.7842 15.9063 77.5847 15.0635 77.1856 14.3143C76.7865 13.5651 76.2449 12.9751 75.5607 12.5443C74.8956 12.0948 74.1544 11.87 73.3372 11.87C72.5011 11.87 71.7504 12.0948 71.0852 12.5443C70.4201 12.9938 69.888 13.5932 69.4889 14.3424C69.0898 15.0729 68.8903 15.9157 68.8903 16.8709Z" fill="white"/>
<path d="M83.5015 24.1756V9.51007H86.6372V20.0457L94.1914 9.48197H97.042V24.1756H93.9063V13.8648L86.4377 24.1756H83.5015ZM90.286 7.96484C88.8797 7.96484 87.7869 7.61834 87.0078 6.92533C86.2476 6.23232 85.8675 5.36138 85.8675 4.3125H87.92C87.92 4.85567 88.1005 5.30519 88.4616 5.66106C88.8417 6.01693 89.4498 6.19486 90.286 6.19486C91.1032 6.19486 91.6828 6.02629 92.0249 5.68915C92.386 5.35201 92.6045 4.89313 92.6805 4.3125H94.733C94.733 5.36138 94.3434 6.23232 93.5642 6.92533C92.8041 7.61834 91.7113 7.96484 90.286 7.96484Z" fill="white"/>
<path d="M105.837 27.6875V21.4504H106.179C106.578 21.4504 106.948 21.338 107.29 21.1133C107.633 20.8885 107.937 20.5046 108.203 19.9614C108.469 19.3995 108.687 18.6316 108.858 17.6576C109.029 16.6649 109.134 15.4194 109.172 13.921L109.343 9.48197H119.976V21.4504H122.028V27.6875H119.263V24.1756H108.573V27.6875H105.837ZM110.312 21.4504H116.84V12.151H112.108L112.022 14.2019C111.965 15.6254 111.861 16.8241 111.709 17.7981C111.576 18.772 111.386 19.5493 111.139 20.13C110.911 20.7106 110.635 21.1507 110.312 21.4504Z" fill="white"/>
<path d="M131.103 24.4566C129.924 24.4566 128.87 24.2599 127.938 23.8666C127.007 23.4545 126.199 22.8926 125.515 22.1809C124.85 21.4692 124.337 20.6638 123.976 19.7647C123.615 18.847 123.434 17.873 123.434 16.8428C123.434 15.8127 123.615 14.8387 123.976 13.921C124.337 13.0032 124.85 12.1978 125.515 11.5048C126.199 10.7931 127.007 10.2405 127.938 9.8472C128.889 9.43515 129.943 9.22912 131.103 9.22912C132.262 9.22912 133.307 9.43515 134.238 9.8472C135.188 10.2405 135.996 10.7931 136.661 11.5048C137.345 12.1978 137.868 13.0032 138.229 13.921C138.59 14.8387 138.771 15.8127 138.771 16.8428C138.771 17.873 138.59 18.847 138.229 19.7647C137.868 20.6638 137.345 21.4692 136.661 22.1809C135.996 22.8926 135.188 23.4545 134.238 23.8666C133.307 24.2599 132.262 24.4566 131.103 24.4566ZM126.656 16.8709C126.656 17.8074 126.855 18.6503 127.254 19.3995C127.653 20.1487 128.185 20.7387 128.851 21.1695C129.516 21.6003 130.266 21.8157 131.103 21.8157C131.92 21.8157 132.661 21.6003 133.326 21.1695C134.01 20.72 134.552 20.1206 134.951 19.3714C135.35 18.6035 135.55 17.7606 135.55 16.8428C135.55 15.9063 135.35 15.0635 134.951 14.3143C134.552 13.5651 134.01 12.9751 133.326 12.5443C132.661 12.0948 131.92 11.87 131.103 11.87C130.266 11.87 129.516 12.0948 128.851 12.5443C128.185 12.9938 127.653 13.5932 127.254 14.3424C126.855 15.0729 126.656 15.9157 126.656 16.8709Z" fill="white"/>
<path d="M141.267 24.1756V9.48197H144.517L149.648 18.5566L154.807 9.48197H158V24.1756H155.007V13.8367L150.617 21.5628H148.65L144.231 13.8367V24.1756H141.267Z" fill="white"/>
<path fill-rule="evenodd" clip-rule="evenodd" d="M16.2489 23.0833L21.0771 18.3247C21.3775 18.0288 21.6157 17.6774 21.7782 17.2906C21.9408 16.9039 22.0244 16.4894 22.0244 16.0708C22.0244 15.6522 21.9408 15.2377 21.7782 14.851C21.6157 14.4643 21.3775 14.1129 21.0771 13.8169C20.7768 13.5209 20.4203 13.2861 20.0279 13.1259C19.6355 12.9658 19.2149 12.8833 18.7902 12.8833C18.3655 12.8833 17.9449 12.9658 17.5526 13.1259C17.1602 13.2861 16.8036 13.5209 16.5033 13.8169L16.2489 14.0677L15.9945 13.8169C15.6941 13.5209 15.3376 13.2861 14.9452 13.1259C14.5528 12.9658 14.1323 12.8833 13.7076 12.8833C13.2828 12.8833 12.8623 12.9658 12.4699 13.1259C12.0775 13.2861 11.721 13.5209 11.4206 13.8169C11.1203 14.1129 10.8821 14.4643 10.7196 14.851C10.557 15.2377 10.4734 15.6522 10.4734 16.0708C10.4734 16.4894 10.557 16.9039 10.7196 17.2906C10.8821 17.6774 11.1203 18.0288 11.4206 18.3247L16.2489 23.0833ZM27.7482 27.3333C27.7482 27.7091 27.5967 28.0694 27.3271 28.3351C27.0576 28.6007 26.692 28.75 26.3107 28.75H6.18704C5.80581 28.75 5.4402 28.6007 5.17064 28.3351C4.90107 28.0694 4.74963 27.7091 4.74963 27.3333V14.5833H0.437408L15.2815 1.28367C15.5462 1.04634 15.8911 0.914827 16.2489 0.914827C16.6067 0.914827 16.9516 1.04634 17.2163 1.28367L32.0604 14.5833H27.7482V27.3333Z" fill="white"/>
</g></symbol><symbol id="icon-vk" viewBox="0 0 20 12">
<path d="M19.0803 9.97597C19.0803 9.90332 19.0077 9.90333 19.0077 9.83068C18.7171 9.24952 18.0633 8.52307 17.1916 7.72398C16.7557 7.36075 16.5377 7.07017 16.3925 6.92488C16.1745 6.6343 16.1745 6.41637 16.2472 6.12579C16.3198 5.90785 16.6104 5.54462 17.1189 4.89081C17.4095 4.52759 17.5548 4.30966 17.7727 4.09173C18.8624 2.63882 19.3709 1.69443 19.2256 1.25856L19.153 1.18592C19.0803 1.11328 19.0077 1.04064 18.8624 1.04064C18.7171 0.96799 18.4992 0.96799 18.2812 1.04064H15.5207C15.4481 1.04064 15.4481 1.04064 15.3028 1.04064C15.2301 1.04064 15.1575 1.04064 15.1575 1.04064H15.0848H15.0122L14.9396 1.11327C14.8669 1.18592 14.8669 1.18592 14.8669 1.25856C14.5763 2.05766 14.2131 2.71146 13.8499 3.43791C13.6319 3.80114 13.414 4.16437 13.1961 4.45495C12.9781 4.74553 12.8328 4.96346 12.6875 5.10875C12.5423 5.25404 12.397 5.32669 12.3243 5.47198C12.2517 5.54462 12.1064 5.61727 12.1064 5.54463C12.0338 5.54463 11.9611 5.54462 11.9611 5.47198C11.8885 5.39933 11.8158 5.32668 11.7432 5.25404C11.6705 5.18139 11.6705 5.0361 11.5979 4.89081C11.5979 4.74552 11.5979 4.60023 11.5979 4.52759C11.5979 4.45494 11.5979 4.23702 11.5979 4.09173C11.5979 3.87379 11.5979 3.7285 11.5979 3.65585C11.5979 3.43792 11.5979 3.14734 11.5979 2.85676C11.5979 2.56618 11.5979 2.34824 11.5979 2.20295C11.5979 2.05766 11.5979 1.83973 11.5979 1.69444C11.5979 1.4765 11.5979 1.33121 11.5979 1.25856C11.5979 1.18592 11.5252 1.04063 11.5252 0.967986C11.4526 0.895341 11.3799 0.822694 11.3073 0.750048C11.2347 0.677403 11.0894 0.677406 11.0167 0.604761C10.6535 0.532115 10.2176 0.459473 9.70912 0.459473C8.5468 0.459473 7.7477 0.53212 7.45712 0.67741C7.31183 0.750055 7.16654 0.822696 7.09389 0.967986C6.9486 1.11328 6.9486 1.18592 7.02124 1.18592C7.38447 1.25857 7.67505 1.40385 7.82034 1.62179L7.89299 1.76709C7.96564 1.83973 7.96562 1.98501 8.03827 2.20295C8.11091 2.42088 8.11092 2.63882 8.11092 2.9294C8.11092 3.36527 8.11092 3.80115 8.11092 4.09173C8.11092 4.45495 8.03827 4.67288 8.03827 4.89081C8.03827 5.10875 7.96564 5.25404 7.89299 5.32669C7.82035 5.47198 7.82034 5.54463 7.74769 5.54463C7.74769 5.54463 7.74769 5.61727 7.67504 5.61727C7.6024 5.61727 7.52976 5.68991 7.38447 5.68991C7.31182 5.68991 7.16654 5.61727 7.09389 5.54463C6.9486 5.47198 6.80331 5.32669 6.73067 5.1814C6.58538 5.03611 6.44008 4.81817 6.29479 4.52759C6.1495 4.23701 5.93156 3.94643 5.78627 3.51056L5.64099 3.21999C5.56835 3.0747 5.42305 2.78411 5.27776 2.42089C5.13247 2.05766 4.98718 1.76709 4.84189 1.40386C4.76925 1.25857 4.69661 1.18592 4.62396 1.11327H4.55131C4.55131 1.11327 4.47866 1.04064 4.40602 1.04064C4.33337 1.04064 4.26073 0.967986 4.18809 0.967986H1.57286C1.28228 0.967986 1.13699 1.04063 1.06435 1.11327L0.991699 1.18592C0.991699 1.18592 0.991699 1.25857 0.991699 1.33121C0.991699 1.40386 0.991704 1.4765 1.06435 1.62179C1.42757 2.49353 1.86344 3.36527 2.29931 4.23701C2.73518 5.03611 3.17106 5.76256 3.46164 6.27108C3.82486 6.77959 4.11544 7.28811 4.47866 7.72398C4.84189 8.15985 5.05982 8.45043 5.13247 8.59572C5.27776 8.74101 5.3504 8.81365 5.42304 8.88629L5.64099 9.10423C5.78628 9.24952 6.00421 9.46746 6.29479 9.68539C6.58537 9.90333 6.94859 10.1213 7.31182 10.3392C7.67504 10.5571 8.11092 10.7024 8.54679 10.8477C9.05531 10.993 9.49117 11.0657 9.92704 10.993H11.0167C11.2347 10.993 11.38 10.9204 11.5252 10.7751L11.5979 10.7024C11.5979 10.6298 11.6705 10.6298 11.6705 10.5571C11.6705 10.4845 11.6705 10.4118 11.6705 10.2666C11.6705 9.97597 11.6705 9.75804 11.7432 9.5401C11.8158 9.32217 11.8158 9.17688 11.8885 9.03159C11.9611 8.8863 12.0338 8.81365 12.1064 8.741C12.179 8.66836 12.2517 8.59572 12.2517 8.59572H12.3243C12.4696 8.52307 12.6876 8.59571 12.8328 8.741C13.0508 8.8863 13.2687 9.10423 13.414 9.32217C13.5593 9.5401 13.7772 9.75804 14.0678 10.0486C14.3584 10.3392 14.5763 10.5571 14.7216 10.6298L14.9396 10.7751C15.0848 10.8477 15.2301 10.9204 15.4481 10.993C15.666 11.0657 15.8113 11.0656 15.9566 11.0656L18.4265 10.993C18.6445 10.993 18.8624 10.9204 19.0077 10.8477C19.153 10.7751 19.2256 10.7024 19.2256 10.5571C19.2256 10.4845 19.2256 10.3392 19.2256 10.2666C19.0803 10.1213 19.0803 10.0486 19.0803 9.97597Z"/>
</symbol><symbol id="icon-vk2" viewBox="0 0 28 22">
<path d="M1 5.33876C1 4.48373 1.5151 4.02268 2.54531 3.95562L6.51515 3.98077C6.78158 3.98077 6.95921 4.10651 7.04802 4.35799C7.45655 5.61538 7.91392 6.70094 8.42014 7.61465C8.92637 8.52835 9.58801 9.58038 10.4051 10.7707C10.4761 10.9216 10.5916 10.997 10.7514 10.997C10.8758 10.997 10.9735 10.9384 11.0445 10.821L11.1244 10.5444L11.1511 6.19379C11.1511 5.89201 11.0756 5.69083 10.9246 5.59024C10.7736 5.48965 10.4939 5.4142 10.0853 5.36391C9.76563 5.31361 9.60577 5.12919 9.60577 4.81065C9.60577 4.74359 9.61465 4.69329 9.63241 4.65976C10.0054 3.57002 11.0711 3.02515 12.8296 3.02515L14.3216 3C14.9966 3 15.5561 3.15927 16.0001 3.47781C16.4442 3.79635 16.6662 4.29931 16.6662 4.98669V10.6953C16.7906 10.7791 16.906 10.821 17.0126 10.821C17.279 10.821 17.5099 10.6701 17.7053 10.3683C19.6592 7.78649 20.716 6.05966 20.8759 5.18787C20.8759 5.1711 20.8936 5.12919 20.9291 5.06213C21.0535 4.81065 21.2577 4.5927 21.5419 4.40828C21.8261 4.22387 22.0748 4.09813 22.288 4.03107C22.359 3.99753 22.4389 3.98077 22.5277 3.98077H26.6574L26.9239 4.00592C27.2791 4.00592 27.5544 4.16519 27.7498 4.48373C27.8209 4.58432 27.8697 4.69329 27.8964 4.81065C27.923 4.92801 27.9408 5.04536 27.9496 5.16272C27.9585 5.28008 27.963 5.34714 27.963 5.36391V5.53994C27.8386 6.22732 27.5233 6.9608 27.0171 7.74038C26.5109 8.51997 25.867 9.36243 25.0855 10.2678C24.304 11.1731 23.8155 11.7682 23.6201 12.0533C23.4603 12.2544 23.3803 12.4389 23.3803 12.6065C23.3803 12.7406 23.4514 12.8915 23.5935 13.0592L27.4834 17.6864C27.6965 17.9546 27.8031 18.248 27.8031 18.5666C27.8031 18.9522 27.6432 19.2707 27.3235 19.5222C27.0038 19.7737 26.6219 19.9162 26.1779 19.9497L25.7249 19.9749H21.6752C21.6574 19.9749 21.6219 19.979 21.5686 19.9874C21.5153 19.9958 21.4798 20 21.462 20C21.0712 20 20.7071 19.8407 20.3696 19.5222C20.2453 19.3881 19.4105 18.3989 17.8652 16.5547C17.7764 16.4374 17.652 16.3284 17.4922 16.2278C17.4211 16.4961 17.3279 16.8817 17.2124 17.3846C17.097 17.8876 17.0126 18.248 16.9593 18.466L16.8794 18.8935C16.7018 19.4803 16.3287 19.8323 15.7604 19.9497L15.3874 19.9749H12.7763C11.3021 19.9749 9.83224 19.3378 8.36686 18.0636C6.90148 16.7894 5.58264 15.1423 4.41034 13.122C3.23803 11.1018 2.14566 8.75049 1.13322 6.06805C1.04441 5.8501 1 5.607 1 5.33876ZM17.0126 11.8521C16.6396 11.8521 16.3021 11.7557 16.0001 11.5629C15.6982 11.3701 15.5472 11.106 15.5472 10.7707V4.98669C15.5472 4.65138 15.4584 4.41248 15.2808 4.26997C15.1032 4.12747 14.7923 4.05621 14.3483 4.05621L12.8296 4.10651C12.0658 4.10651 11.4886 4.23225 11.0978 4.48373C11.8793 4.8358 12.2701 5.40582 12.2701 6.19379V10.6198C12.2346 11.039 12.0569 11.3868 11.7372 11.6635C11.4175 11.9401 11.0623 12.0784 10.6715 12.0784C10.1386 12.0784 9.7301 11.8353 9.44591 11.3491C8.06046 9.37081 7.03025 7.4931 6.35529 5.71598L6.1155 5.06213L2.57195 5.03698C2.34104 5.03698 2.21227 5.04956 2.18562 5.0747C2.15898 5.09985 2.14566 5.1711 2.14566 5.28846C2.14566 5.43935 2.16342 5.59862 2.19895 5.76627L2.75845 7.17456C4.25048 10.8126 5.87127 13.6795 7.62085 15.7751C9.37042 17.8708 11.0889 18.9186 12.7763 18.9186H15.4406C15.5472 18.9186 15.6271 18.8893 15.6804 18.8306C15.7337 18.7719 15.7781 18.6588 15.8136 18.4911L15.8669 18.2396L16.3732 16.0266C16.5152 15.7249 16.6396 15.5237 16.7462 15.4231C16.9415 15.2387 17.1725 15.1465 17.4389 15.1465C17.8652 15.1465 18.3003 15.3895 18.7444 15.8757L21.0091 18.5917C21.1512 18.8097 21.3022 18.9186 21.462 18.9186H25.8581C26.391 18.9186 26.6574 18.7929 26.6574 18.5414C26.6574 18.4576 26.6308 18.3738 26.5775 18.2899L22.7142 13.7382C22.4123 13.3861 22.2613 13.0089 22.2613 12.6065C22.2613 12.2041 22.4034 11.8185 22.6876 11.4497C22.9185 11.1144 23.367 10.557 24.0331 9.77737C24.6992 8.99778 25.2809 8.26849 25.7782 7.5895C26.2756 6.9105 26.6042 6.29438 26.764 5.74112L26.8439 5.4142C26.8262 5.38067 26.8173 5.32618 26.8173 5.25074C26.8173 5.1753 26.8084 5.11243 26.7907 5.06213H22.6077C22.3412 5.16272 22.1281 5.31361 21.9682 5.51479L21.8084 5.9926C21.3643 7.14941 20.2009 8.93491 18.3181 11.3491C17.9451 11.6844 17.5099 11.8521 17.0126 11.8521Z"/>
</symbol><symbol id="icon-whatsapp" viewBox="0 0 21 21">
<path d="M17.9857 2.92441C16.1035 1.0377 13.5969 0 10.933 0C5.43457 0 0.960352 4.47422 0.960352 9.97266C0.960352 11.7291 1.41855 13.4451 2.29004 14.959L0.875 20.125L6.1623 18.7369C7.61777 19.532 9.25742 19.9498 10.9285 19.9498H10.933C16.427 19.9498 21 15.4756 21 9.97715C21 7.31328 19.868 4.81113 17.9857 2.92441ZM10.933 18.2697C9.4416 18.2697 7.98164 17.8699 6.71035 17.1152L6.40937 16.9355L3.27383 17.7576L4.10938 14.6984L3.91172 14.384C3.08066 13.0633 2.64492 11.5404 2.64492 9.97266C2.64492 5.4041 6.36445 1.68457 10.9375 1.68457C13.1521 1.68457 15.232 2.54707 16.7953 4.11484C18.3586 5.68262 19.3199 7.7625 19.3154 9.97715C19.3154 14.5502 15.5016 18.2697 10.933 18.2697ZM15.4791 12.0615C15.232 11.9357 14.0057 11.3338 13.7766 11.2529C13.5475 11.1676 13.3813 11.1271 13.215 11.3787C13.0488 11.6303 12.5727 12.1873 12.4244 12.358C12.2807 12.5242 12.1324 12.5467 11.8854 12.4209C10.4209 11.6887 9.45957 11.1137 8.49375 9.45605C8.2377 9.01582 8.7498 9.04727 9.22598 8.09492C9.30684 7.92871 9.26641 7.78496 9.20352 7.65918C9.14062 7.5334 8.64199 6.30703 8.43535 5.8084C8.2332 5.32324 8.02656 5.39062 7.87383 5.38164C7.73008 5.37266 7.56387 5.37266 7.39766 5.37266C7.23145 5.37266 6.96191 5.43555 6.73281 5.68262C6.50371 5.93418 5.86133 6.53613 5.86133 7.7625C5.86133 8.98887 6.75527 10.1748 6.87656 10.341C7.00234 10.5072 8.63301 13.0229 11.1352 14.1055C12.7164 14.7883 13.3363 14.8467 14.127 14.7299C14.6076 14.658 15.6004 14.1279 15.807 13.5439C16.0137 12.96 16.0137 12.4613 15.9508 12.358C15.8924 12.2457 15.7262 12.1828 15.4791 12.0615Z"/>
</symbol><symbol id="icon-youtube" viewBox="0 0 28 22">
<path d="M17.8509 10.7927L12.6145 7.30184C12.5159 7.23691 12.4016 7.19985 12.2837 7.19459C12.1657 7.18934 12.0486 7.21608 11.9446 7.27198C11.8406 7.32789 11.7537 7.41087 11.693 7.51215C11.6324 7.61343 11.6002 7.72924 11.6 7.84729V14.8291C11.6001 14.9481 11.6327 15.0648 11.6942 15.1667C11.7557 15.2686 11.8438 15.3518 11.9491 15.4073C12.0524 15.4631 12.1691 15.4895 12.2864 15.4837C12.4037 15.478 12.5172 15.4402 12.6145 15.3746L17.8509 11.8837C17.9409 11.8239 18.0148 11.7429 18.0658 11.6477C18.1169 11.5526 18.1436 11.4462 18.1436 11.3382C18.1436 11.2302 18.1169 11.1239 18.0658 11.0287C18.0148 10.9335 17.9409 10.8525 17.8509 10.7927ZM12.9091 13.6073V9.06911L16.3127 11.3382L12.9091 13.6073ZM25.3891 5.04366C25.2942 4.67547 25.1131 4.33511 24.8609 4.05061C24.6086 3.76611 24.2924 3.54561 23.9382 3.40729C20.2182 1.9782 14.2509 2.00002 14 2.00002C13.7491 2.00002 7.78182 1.9782 4.06182 3.40729C3.70764 3.54561 3.3914 3.76611 3.13914 4.05061C2.88689 4.33511 2.70584 4.67547 2.61091 5.04366C2.32727 6.11275 2 8.07638 2 11.3382C2 14.6 2.32727 16.5637 2.61091 17.6327C2.70584 18.0009 2.88689 18.3413 3.13914 18.6258C3.3914 18.9103 3.70764 19.1308 4.06182 19.2691C7.78182 20.6982 13.7491 20.6764 14 20.6764H14.0764C14.8291 20.6764 20.3927 20.6327 23.9382 19.2691C24.2924 19.1308 24.6086 18.9103 24.8609 18.6258C25.1131 18.3413 25.2942 18.0009 25.3891 17.6327C25.6727 16.5637 26 14.6 26 11.3382C26 8.07638 25.6727 6.11275 25.3891 5.04366ZM24.1236 17.3055C24.0807 17.472 23.999 17.6259 23.8853 17.7548C23.7715 17.8838 23.6289 17.984 23.4691 18.0473C19.9782 19.3891 14.0655 19.3673 14 19.3673C13.9345 19.3673 8.02182 19.3891 4.53091 18.0473C4.37107 17.984 4.22846 17.8838 4.11471 17.7548C4.00096 17.6259 3.91929 17.472 3.87636 17.3055C3.61455 16.3018 3.30909 14.4582 3.30909 11.3382C3.30909 8.2182 3.61455 6.37457 3.87636 5.37093C3.91929 5.20445 4.00096 5.05047 4.11471 4.92156C4.22846 4.79264 4.37107 4.69243 4.53091 4.62911C8.02182 3.28729 13.9345 3.30911 14 3.30911C14.0655 3.30911 19.9782 3.28729 23.4691 4.62911C23.6289 4.69243 23.7715 4.79264 23.8853 4.92156C23.999 5.05047 24.0807 5.20445 24.1236 5.37093C24.3855 6.37457 24.6909 8.2182 24.6909 11.3382C24.6909 14.4582 24.3855 16.3018 24.1236 17.3055Z"/>
</symbol></svg>